# xmcd
#
# Track frame offsets:
#	150
#	11228
#	21970
#	37116
#	51655
#	64325
#	76799
#	90442
#	111642
#	121160
#	134618
#	149744
#	165040
#	176774
#	193605
#	207216
#	220028
#	233245
#	245910
#	260320
#	270779
#
# Disc length: 3842 seconds
# Revision: 0
# Processed by: cddbd v1.5.2PL0 Copyright (c) Steve Scherf et al.
# Submitted via: dBpowerAMP V12.0
#
DISCID=360f0015
DTITLE=Various Artist - Live at Grass Valley - Wolf Mountain Bluegrass Festival 93
DYEAR=1993
DGENRE=Bluegrass
TTITLE0=The Vern and Del Williams Band - Nellie Across the Sea
TTITLE1=The Sawtooth Mountain Boys - I'll Take the Blame
TTITLE2=Kentucky Rose - Old Photograph
TTITLE3=High Country - Blues for Your Own
TTITLE4=Tenbrooks - Drink Up and Go Home
TTITLE5=The Vern and Del Williams Band - Foggy Mountain Top
TTITLE6=Kentucky Rose - Brakeman's Blues
TTITLE7=Coyote Brothers - Lonesome Old Song
TTITLE8=The Sawtooth Mountain Boys - I Could Change My Mind
TTITLE9=Kentucky Rose - True Life Blues
TTITLE10=All Girl Boys - Climbing Up the Mountain
TTITLE11=High Country - Workin' On a Building
TTITLE12=Tenbrooks - Don't Sweeheart Me
TTITLE13=Coyote Brothers - There Ain't No Grave
TTITLE14=High Country - Down Hearted
TTITLE15=The Vern and Del Williams Band - Old Love Affair
TTITLE16=Good Ol Persons - Red Shirt
TTITLE17=High Country - The Girl I Love
TTITLE18=Kentucky Rose - Dark as the NIght, Blue as the day
TTITLE19=Tenbrooks - Hold Me
TTITLE20=The Sawtooth Mountain Boys - Don't Chain My Heart
EXTD=
EXTT0=
EXTT1=
EXTT2=
EXTT3=
EXTT4=
EXTT5=
EXTT6=
EXTT7=
EXTT8=
EXTT9=
EXTT10=
EXTT11=
EXTT12=
EXTT13=
EXTT14=
EXTT15=
EXTT16=
EXTT17=
EXTT18=
EXTT19=
EXTT20=
PLAYORDER=
